# xmcd CD database file
#
# Track frame offsets:
#	180
#	12277
#	25975
#	40540
#	72450
#	101435
#	122005
#	144282
#	168665
#	182262
#	224447
#	243910
#	275177
#	288362
#
# Disc length: 3987 seconds
#
# Revision: 0
# Processed by: cddbd v1.5.2PL0 Copyright (c) Steve Scherf et al.
# Submitted via: CDex 1.51
#
DISCID=c60f910e
DTITLE=Lammas - This Morning
DYEAR=1993
DGENRE=Jazz
TTITLE0=Hare in the Heather
TTITLE1=Le Camion de Lavande
TTITLE2=The Barnsley Abacus
TTITLE3=Round Dance for One
TTITLE4=Nijinsky
TTITLE5=This Morning
TTITLE6=Moll Dubh
TTITLE7=Wind Song
TTITLE8=Candlebirds
TTITLE9=Circular Knotwork
TTITLE10=Acceptance
TTITLE11=Farewell to Ed
TTITLE12=Kornography
TTITLE13=Fatherly
EXTD=YEAR: 1993
EXTT0=
EXTT1=
EXTT2=
EXTT3=
EXTT4=
EXTT5=
EXTT6=
EXTT7=
EXTT8=
EXTT9=
EXTT10=
EXTT11=
EXTT12=
EXTT13=
PLAYORDER=
